<!-- Generated by IcoMoon.io -->
<svg version="1.1" xmlns="http://www.w3.org/2000/svg" width="1024" height="1024" viewBox="0 0 1024 1024">
<title></title>
<g id="icomoon-ignore">
</g>
<path fill="#000" d="M945.665 1022.223l2.248-3.786q15.659-26.518 14.666-38.6-0.294-22.008-24.143-54.205 8.405-13.11 7.309-20.075l-13.335-35.779 0.755-9.75q9.811-26.965 10.704-37.14 1.742-7.205-1.143-30.156l-32.541-137.752-15.807-93.452q-9.048-25.756-23.899-34.097-10.521-7.541-23.024-13.34-59.888-24.738-87.279-38.485l1.531 5.115q-244.814-11.118-315.922-10.003-100.581 0.179-140.407 12.251-20.973 6.006-33.558 14.746-18.685 13.244-29.441 31.71-12.444 5.223-67.964 202.313-16.547 63.816-0.891 94.914-42.478 49.21-51.059 83.126-7.67 41.432 29.725 97.581l29.565 14.187q25.986 3.48 40.634 2.029 20.319 1.016 50.386-30.32l-7.384 26.948 680.273 2.025z"></path>
<path fill="#ffa1e1" d="M515.758 581.154l-4.252 2.827q-40.716 31.837-86.232 0.581-16.854-9.667-49.749-33.627-55.446-69.562-51.359-73.904-0.59-4.144 1.119-6.318 5.63-4.097 12.717-16.936l3.308-2.916 17.78-3.158 9.458-8.82q5.077-1.308 17.51 1.362-7.066-34.936-4.491-54.917 1.486-19.532 16.674-63.627-46.948-105.409-40.044-178.683 2.427-36.98 22.434-69.492 8.245-17.526 48.648-45.73 5.522-4.846 37.982-18.182 13.155-4.653 26.236-7.125 26.356-5.093 48.971 0.228 38.885 3.842 100.109 86.105 40.931 48.674 57.8 97.818 9.794 26.2 22.511 97.703 25.872 39.461 28.152 50.195 2.145 9.115 1.27 10.032l-7.080 19.073q-1.018 9.914 0.141 13.592-3-2.853 19.882 58.212 7.464 25.258 7.355 30.189 1.667 24.347-1.020 28.131-4.994 17.126-20.134 30.052t-36.369 23.334l-75.714 35.057q-42.123 19.386-64.272 18.72-22.652 1.22-59.34-19.774z"></path>
<path fill="#000" d="M381.999 259.398l-3.219-13.39q-10.452-40.597-13.764-77.381-1.879-24.347 3.379-44.879 8.235-26.427 25.020-40.863 11.28-10.446 25.076-17.342 16.185-7.424 23.764-8.76 22.146-5.836 46.275-0.287 27.39 7.45 48.785 26.029 19.186 15.064 39.219 46.579 14.521 24.308 28.096 63.555l-222.628 66.739z"></path>
<path fill="#ffbb9c" d="M567.557 402.643l-1.157 1.413q-10.702 13.192-27.637 17.121-23.59 6.848-42.036 2.906-5.463-1.623-9.566-4.398-6.044-4.252-10.937-9.476-20.721-12.578-30.906-20.59-18.052-14.641-24.319-25.688-7.548-7.262-31.917-76.258-9.589-28.216-12.67-52.751-8.004-56.641 15.605-86.035 14.549-17.383 50.255-26.497 32.496-8.063 63.609-2.526 51.376 12.045 96.535 70.623 19.948 28.964 24.19 68.935l0.802 5.324q-2.412 25.477-6.037 48.978-4.658 31.626-16.406 51.729-8.338 15.845-37.408 37.196z"></path>
<path fill="#fff" d="M513.020 222.441l1.782-1.966q5.34-6.053 10.709-10.739 1.792-1.512 3.588-2.719l1.801-1.114q1.528-0.941 4.157-1.81 3.374-1.138 8.585-0.393 2.556 0.435 5.121 1.284 3.847 1.305 7.703 2.96-5.228 4.672-8.734 6.862-3.591 2.137-4.492 2.439-1.613 0.736-3.419 1.341-1.813 0.602-3.821 1.074-0.91 0.299-6.368 1.183-5.543 0.828-16.607 1.594z"></path>
<path fill="#000" d="M532.55 220.673l-0.485-0.186q-3.233-1.101-4.546-3.141-1.234-1.721-1.888-7.671 3.96-3.93 6.53-4.941 2.239-1.138 8.574-1.641 4.813 2.438 5.829 4.585 0.508 0.72 0.887 2.94 0.231 1.611 0.13 4.858l-8.061 3.4-6.97 1.801z"></path>
<path fill="#000" d="M498.657 286.096v0z"></path>
<path fill="#000" d="M500.076 189.186l1.921-1.399q5.709-4.289 11.903-7.743 2.083-1.121 4.275-2.055l2.225-0.877q1.931-0.752 5.308-1.54 3.704-0.733 5.702-0.872l2.479-0.188q2.509-0.139 5.11-0.122 6.479 0.005 18.85 1.225-20.166 1.681-30.473 4.181-9.71 2.128-27.299 9.39z"></path>
<path fill="#000" d="M551.017 227.054v0z"></path>
<path fill="#fff" d="M446.722 241.557l-2.519-0.833q-7.631-2.634-14.612-4.063-2.304-0.433-4.463-0.597l-2.114-0.080q-1.794-0.066-4.51 0.475-3.497 0.673-7.663 3.89-2.010 1.639-3.821 3.642-2.704 3.033-5.242 6.373 6.852 1.488 10.984 1.663 4.178 0.087 5.112-0.092 1.766-0.155 3.636-0.518 1.874-0.371 3.852-0.95 0.938-0.186 6.124-2.111 5.232-2.011 15.233-6.803z"></path>
<path fill="#000" d="M428.86 249.652l0.329-0.402q2.271-2.552 2.408-4.974 0.226-2.107-2.14-7.603-5.383-1.467-8.117-1.079-2.509 0.115-8.27 2.8-2.984 4.494-2.81 6.862-0.087 0.877 0.679 2.994 0.595 1.515 2.283 4.291l8.689-1.018 6.953-1.87z"></path>
<path fill="#000" d="M441.586 206.246l-2.361-0.27q-7.080-0.915-14.172-0.865-2.365 0.052-4.731 0.32l-2.37 0.336q-2.051 0.299-5.38 1.279-3.584 1.188-5.39 2.053l-2.251 1.060q-2.251 1.117-4.506 2.415-5.634 3.2-15.793 10.359 18.372-8.482 28.573-11.391 9.496-2.939 28.38-5.295z"></path>
<path fill="#000" d="M415.941 264.308v0z"></path>
<path fill="#ff4800" opacity="0.023390949480999998" d="M454.308 342.757l2.225-1.455q10.078-7.342 23.703-13.023 4.769-1.020 7.638-1.013 6.518 0.498 8.71 1.256 5.288-5.521 18.238-8.051 10.68-2.124 48.336-5.34-12.79 16.752-28.009 39.325-3.744 4.55-9.157 8.494-10.626 6.187-18.485 7.184-5.314 0.833-9.667 0.43-4.557-0.456-7.395-1.343-7.415-2.178-15.506-7.943-12.395-9.592-20.63-18.527z"></path>
<path fill="#fff" d="M463.223 342.331l2.944-0.346q22.474-2.467 35.165-5.592 4.586-1.148 8.912-2.467 15.132-4.813 23.318-7.191 5.046-1.502 21.65-6.171-19.894 22.756-28.675 28.401-6.14 4.334-11.146 6.144-5.317 2.010-10.507 2.586-11.155 1.049-20.16-2.276-10.293-3.748-21.504-13.086z"></path>
<path fill="#fff" d="M509.065 355.565v0z"></path>
<path fill="#ff4800" opacity="0.025851494656000003" d="M457.014 307.202v0l25.394 9.792 26.819-26.61-28.089 20.895-24.124-4.077z"></path>
<path fill="#ff4800" d="M510.065 320.421v0z"></path>
<path fill="#9c27b0" d="M67.182 541.721l25.133-31.572 101.532-0.851 186.501 404.749-44.451 24.841-268.715-397.167z"></path>
<path fill="#ffeb3b" d="M190.239 805.985l-128.877-257.853 9.723-14.192 82.853 2.048 199.152 398.773-94.865 5.982-67.983-134.758z"></path>
<path fill="#fff" d="M69.802 542.341l5.082-5.575 77.455 1.176 198.967 396.034-11.414 0.162-197.152-386.068-72.935-5.73z"></path>
<path fill="#fff" d="M196.031 669.453v0z"></path>
<path fill="#fff" d="M86.038 526.586l10.076-13.641 96.911-0.518 185.458 401.807-20.273 12.275-176.728-398.87-95.448-1.053z"></path>
<path fill="#fff" d="M511.976 974.575v0 0z"></path>
<path fill="#ffbb9c" d="M337.113 1022.72l-14.104-26.309q-21.784-14.784-26.577-31.397l-4.468-13.952 13.623 1.834q-14.123-15.63-15.717-21.695-2.425-7.055 3.231-15.637l33.634 6.022q14.394 7.415 26.18 9.072 10.968 2.022 42.087 1.968-6.947 2.406-13.608-1.884-4.211-1.642-17.117-18.441-5.587-7.076-26.16-38.219 4.578-8.332 6.639-7.765 1.354-0.073 2.796 1.896 6.25 10.347 9.853 14.17 3.32 3.647 7.964 6.906 6.318 5.609 50.299 25.686 18.186 7.687 31.503 11.79l69.673 20.931q18.46 5.667 62.612 20.326 5.874 27.581-6.366 52.773l-235.98 1.93z"></path>
<path fill="#ffbb9c" d="M168.313 928.591l-14.989-47.409 25.377-60.911 8.962-10.394q-0.779-26.949 8.338-49.091 10.848-23.181 24.87-30.133 11.252-5.853 25.65-2.552 9.15 0.898 40.77 15.958l8.922-5.503 28.225 28.745-48.521 31.927 47.792-31.016 12.139 23.959-46.231 42.236 46.076-38.835 10.006 31.501-42.504 38.067 41.086-34.671 5.166 23.198q-14.53 21.343-28.093 33.084-19.678 16.538-42.367 18.659-19.242 0.32-39.766-15.945l-32.475 60.215-38.436-21.096z"></path>
<path fill="#fff" d="M523.678 391.543v0z"></path>
<path fill="#000" opacity="0.022206960400000003" d="M606.848 62.126v0q10.728 55.618 15.367 85.41 4.456 29.648 4.945 35.24 1.394 11.532 2.361 22.708 0.955 11.165 1.486 21.972l0.444 10.733q0.345 10.652 0.383 21.044 0.169 26.046-1.914 70.926 8.082-50.318 10.010-78.259 0.83-11.177 1.063-22.353l0.043-11.174-0.331-11.172-0.743-11.17q-0.973-11.17-2.772-22.335l-1.966-11.165q-2.154-11.165-4.907-22.326-8.56-33.483-19.816-66.957l-3.638-11.118zM671.233 160.723l-1.275 12.054q-3.732 36.839-8.527 69.951-4.294 26.546-5.458 30.777-2.013 9.576-4.353 18.015-2.349 8.404-5.021 15.666-1.178 4.19-8.602 19.743-7.565 15.062-23 35.792 18.941-17.972 27.731-32.070 8.546-14.671 9.731-18.857 2.909-7.076 5.261-15.476 2.335-8.44 4.113-18.203l1.663-10.034q1.538-10.335 2.669-21.632 2.928-27.981 5.079-85.725zM409.356 363.523q8.359 21.081 13.448 30.285 5.154 8.86 6.321 9.869 2.192 2.806 4.529 4.806 2.34 1.975 4.825 3.142l2.512 1.002q2.545 0.818 5.194 1.051 1.214 0.132 2.636 0.132 6.295 0 16.64-2.624-11.758-1.188-18.034-3.452-6.241-2.485-7.412-3.469-2.422-1.465-4.76-3.443-10.499-9.088-23.837-33.652l-2.060-3.647zM708.97 286.866l-3.342 6.29q-20.83 41.613-46.717 65.635-22.194 21.693-89.108 55.67 39.428-14.861 58.577-24.992 18.767-10.391 21.684-13.039 6.699-4.706 12.51-10.017 5.785-5.328 10.687-11.257 2.883-2.671 13.114-18.871 9.841-16.451 22.6-49.42zM453.282 458.148v0q35.536 20.341 54.844 28.754 7.736 3.433 15.37 6.189l7.6 2.545q7.572 2.356 15.005 3.781 7.428 1.395 14.716 1.863l7.259 0.277q0.696 0.007 1.39 0.007 6.523 0 12.962-0.552 17.836-1.359 49.152-9.011h-0.005q-32.437 3.878-50.664 3.92-0.974 0.009-1.95 0.009-6.318 0-12.672-0.371l-7.349-0.583q-7.363-0.72-14.793-2.121-7.431-1.422-14.928-3.522-3.716-0.719-22.608-7.52-22.742-8.91-45.7-20.042l-7.623-3.619zM391.638 451.213v0q31.070 69.645 51.373 89.456 4.974 5.274 10.264 9.552 2.49 2.626 16.437 11.054 14.081 8 41.198 16.835-39.708-24.832-59.59-46.84-22.363-23.978-54.71-72.712l-4.966-7.346z"></path>
<path fill="#000" d="M551.867 570.125v0z"></path>
</svg>
